<svg xmlns="http://www.w3.org/2000/svg" viewBox="0 0 1200 800" role="img" aria-labelledby="title desc">
  <title id="title">Anna Maria Island</title>
  <desc id="desc">Poster ilustrado con playa, oceano, palmeras y atardecer</desc>
  <defs>
    <linearGradient id="sky" x1="0%" y1="0%" x2="0%" y2="100%">
      <stop offset="0%" stop-color="#7bd0ff"/>
      <stop offset="48%" stop-color="#9be7ff"/>
      <stop offset="100%" stop-color="#ffd0a0"/>
    </linearGradient>
    <linearGradient id="sea" x1="0%" y1="0%" x2="0%" y2="100%">
      <stop offset="0%" stop-color="#34a4d9"/>
      <stop offset="100%" stop-color="#0369a1"/>
    </linearGradient>
    <linearGradient id="sand" x1="0%" y1="0%" x2="100%" y2="100%">
      <stop offset="0%" stop-color="#fff1c2"/>
      <stop offset="100%" stop-color="#f4c984"/>
    </linearGradient>
  </defs>
  <rect width="1200" height="800" fill="url(#sky)"/>
  <circle cx="918" cy="176" r="92" fill="#fff5c2" opacity=".72"/>
  <rect y="390" width="1200" height="170" fill="url(#sea)"/>
  <path d="M0 454c86 15 151 24 232 24 104 0 179-12 258-28 79-16 152-31 246-31 107 0 196 20 267 35 72 15 131 23 197 18v88H0z" fill="#0d87c5" opacity=".58"/>
  <path d="M0 548c130 18 256 27 370 27 158 0 312-18 450-32 129-13 248-16 380 3v254H0z" fill="url(#sand)"/>
  <path d="M0 562c138 11 244 12 356 4 153-11 271-38 413-54 157-18 282-16 431 7" fill="none" stroke="#ffffff" stroke-width="12" stroke-linecap="round" opacity=".82"/>
  <g transform="translate(172 172)">
    <rect x="64" y="214" width="24" height="246" rx="12" fill="#6f4a1b"/>
    <path d="M78 204c-23-74-10-126 36-166 36 52 44 101 26 152-17-28-39-47-62-56 11 24 12 47 0 70z" fill="#1a7a32"/>
    <path d="M84 200c39-51 91-74 158-70-18 56-54 92-110 111-3-23-18-37-48-41z" fill="#24904a"/>
    <path d="M86 188c45-13 90-5 137 27-41 38-86 50-135 41 13-19 13-42-2-68z" fill="#15703b"/>
  </g>
  <g fill="#ffffff" opacity=".78">
    <circle cx="242" cy="204" r="5"/>
    <circle cx="298" cy="238" r="4"/>
    <circle cx="996" cy="246" r="5"/>
    <circle cx="1060" cy="206" r="4"/>
  </g>
  <text x="88" y="648" fill="#0d3658" font-family="Georgia, serif" font-size="102" font-weight="700">Anna Maria</text>
  <text x="92" y="724" fill="#0a7b72" font-family="Arial, sans-serif" font-size="34" font-weight="700" letter-spacing="8">ISLAND DAY</text>
</svg>
